<svg width="47" height="48" fill="none" xmlns="http://www.w3.org/2000/svg"><path d="M32.113 12.103l-6.906-6.906v17.308h17.308l-6.906-6.906L46.736 4.473 43.239.977 32.113 12.103z" fill="#fff"/><path d="M33.668 28.546a2.475 2.475 0 0 0-3.44.106l-5.914 6.085c-1.424-.272-4.287-1.164-7.234-4.104-2.947-2.95-3.84-5.82-4.105-7.235l6.08-5.919a2.472 2.472 0 0 0 .107-3.44L10.026 3.995a2.473 2.473 0 0 0-3.44-.215L1.221 8.38c-.428.429-.684 1-.72 1.605-.037.618-.744 15.26 10.61 26.619 9.905 9.902 22.314 10.627 25.73 10.627.501 0 .805-.015.887-.02a2.447 2.447 0 0 0 1.602-.72l4.601-5.367a2.475 2.475 0 0 0-.212-3.44l-10.051-9.138z" fill="#fff"/></svg>