<svg width="151" height="29" fill="none" xmlns="http://www.w3.org/2000/svg"><path d="M18.117 16.556H6.624c.094 1.611 1.225 2.573 2.983 2.573 1.287 0 2.135-.372 2.449-1.146h5.966c-.565 3.252-3.862 5.329-8.415 5.329C3.987 23.31.469 20.367.469 15.1c0-5.175 3.58-8.272 9.012-8.272 5.182 0 8.792 3.067 8.792 7.467 0 .929-.03 1.362-.156 2.261zM12.12 13.21c-.033-1.674-.974-2.697-2.7-2.697-1.696 0-2.733 1.116-2.795 2.697h5.495z" fill="#555"/><path d="M22.606 15.007L17.11 7.385h7.222l2.198 3.935 2.197-3.935h7.222l-5.496 7.622 5.59 7.778H28.82l-2.293-4.121-2.293 4.12h-7.221l5.592-7.777zm32.94.093c0 4.833-2.92 8.118-7.065 8.118-2.481 0-4.24-1.332-4.898-2.727v8.18h-6.155V7.385h6.155v2.293c.69-1.488 2.512-2.727 4.993-2.727 4.081 0 6.97 3.223 6.97 8.15zm-6.375 0c0-1.92-1.194-3.253-2.922-3.253-1.727 0-2.92 1.332-2.92 3.253 0 1.92 1.193 3.285 2.92 3.285 1.697-.002 2.922-1.364 2.922-3.285zM57.02 3.542c0-1.827 1.445-3.315 3.424-3.315 1.946 0 3.422 1.488 3.422 3.315 0 1.796-1.476 3.315-3.422 3.315-1.979.001-3.424-1.517-3.424-3.315zm.346 3.842h6.155v15.4h-6.155v-15.4zm9.109 0h6.154v3.44c.566-2.417 2.387-3.75 4.491-3.75.533 0 .785.032 1.162.093v5.731a8.638 8.638 0 0 0-1.57-.124c-2.292 0-4.081.992-4.081 4.834v5.175h-6.155V7.384h-.001zm30.049 9.172H85.03c.093 1.611 1.224 2.573 2.982 2.573 1.288 0 2.135-.372 2.45-1.146h5.966c-.566 3.252-3.862 5.329-8.416 5.329-5.621 0-9.137-2.943-9.137-8.212 0-5.175 3.58-8.272 9.012-8.272 5.181 0 8.792 3.067 8.792 7.467 0 .929-.03 1.362-.156 2.261zm-5.999-3.346c-.032-1.674-.973-2.697-2.7-2.697-1.695 0-2.733 1.116-2.794 2.697h5.494zm7.787-5.826h6.155v2.263c.817-1.767 2.575-2.697 5.056-2.697 3.832 0 5.716 2.139 5.716 6.446v9.388h-6.281v-7.84c0-1.982-.659-2.912-2.167-2.912-1.539 0-2.324.992-2.324 3.036v7.716h-6.154v-15.4zm24.996 4.958h-6.186V7.385h15.135l-6.721 10.442h6.092v4.958h-15.26l6.94-10.443zm8.854 2.758c0-4.741 2.796-8.148 7.098-8.148 2.418 0 4.113 1.146 4.835 2.726V7.386h6.186v15.4h-6.186v-2.293c-.691 1.58-2.512 2.727-4.868 2.727-4.364-.002-7.065-3.41-7.065-8.12zm12.215 0c0-1.859-1.099-3.253-2.952-3.253-1.758 0-2.889 1.364-2.889 3.253 0 1.89 1.131 3.223 2.889 3.223 1.853 0 2.952-1.396 2.952-3.223z" fill="#555"/></svg>