<svg width="55" height="55" fill="none" xmlns="http://www.w3.org/2000/svg"><path fill-rule="evenodd" clip-rule="evenodd" d="M54.391 27.647a26.67 26.67 0 0 1-7.908 18.937 27.113 27.113 0 0 1-19.092 7.843A27.113 27.113 0 0 1 8.3 46.584 26.67 26.67 0 0 1 .391 27.647 26.67 26.67 0 0 1 8.3 8.71 27.113 27.113 0 0 1 27.391.866c7.161 0 14.029 2.822 19.092 7.844a26.67 26.67 0 0 1 7.908 18.937zm-28.195 8.858a1.669 1.669 0 0 0 0 2.37 1.696 1.696 0 0 0 2.39 0L38.71 28.832a1.674 1.674 0 0 0 .496-1.185 1.664 1.664 0 0 0-.496-1.185L28.586 16.419a1.692 1.692 0 0 0-1.195-.49 1.702 1.702 0 0 0-1.195.49 1.675 1.675 0 0 0-.495 1.185 1.664 1.664 0 0 0 .495 1.185l7.247 7.184H17.266c-.447 0-.877.177-1.193.49a1.667 1.667 0 0 0 0 2.367c.316.314.746.49 1.193.49h16.177l-7.247 7.185z" fill="gray"/></svg>