<svg width="27" height="13" fill="none" xmlns="http://www.w3.org/2000/svg"><rect x=".924" y=".344" width="25.255" height="12" rx="4" fill="red"/><path d="M7.939 3.744c.496 0 .925.083 1.288.248.368.165.65.4.848.704.197.304.296.664.296 1.08 0 .41-.1.77-.296 1.08-.198.304-.48.539-.848.704-.363.16-.792.24-1.288.24H6.81v1.544H5.515v-5.6h2.424zm-.072 3c.389 0 .685-.083.888-.248.202-.17.304-.41.304-.72 0-.315-.102-.555-.304-.72-.203-.17-.5-.256-.888-.256H6.81v1.944h1.056zm6.997 2.6l-1.08-1.56h-1.192v1.56h-1.296v-5.6h2.424c.496 0 .925.083 1.288.248.368.165.65.4.848.704.197.304.296.664.296 1.08 0 .416-.102.776-.304 1.08-.198.299-.48.528-.848.688l1.256 1.8h-1.392zm-.024-3.568c0-.315-.101-.555-.304-.72-.203-.17-.499-.256-.888-.256h-1.056v1.952h1.056c.39 0 .685-.085.888-.256.203-.17.304-.41.304-.72zm5.05 3.664a3.292 3.292 0 0 1-1.575-.376 2.837 2.837 0 0 1-1.096-1.032 2.872 2.872 0 0 1-.392-1.488c0-.55.13-1.043.392-1.48.266-.443.632-.79 1.096-1.04.469-.25.994-.376 1.576-.376.581 0 1.104.125 1.568.376a2.817 2.817 0 0 1 1.496 2.52c0 .55-.134 1.045-.4 1.488a2.836 2.836 0 0 1-1.096 1.032c-.464.25-.987.376-1.568.376zm0-1.104c.331 0 .63-.075.897-.224.266-.155.474-.368.624-.64.154-.272.232-.581.232-.928 0-.347-.078-.656-.232-.928a1.58 1.58 0 0 0-.624-.632 1.753 1.753 0 0 0-.896-.232c-.331 0-.63.077-.896.232-.267.15-.478.36-.632.632-.15.272-.224.581-.224.928 0 .347.074.656.224.928.154.272.365.485.632.64.266.15.565.224.896.224z" fill="#fff"/></svg>