<svg width="47" height="47" viewBox="0 0 47 47" fill="none" xmlns="http://www.w3.org/2000/svg">
<path d="M44.512 0.313477H1.88602C0.86091 0.313477 0.0327148 1.14167 0.0327148 2.16678V44.7928C0.0327148 45.8179 0.86091 46.6461 1.88602 46.6461H44.512C45.5371 46.6461 46.3653 45.8179 46.3653 44.7928V2.16678C46.3653 1.14167 45.5371 0.313477 44.512 0.313477ZM39.1606 13.8368H35.4598C32.5582 13.8368 31.9964 15.2152 31.9964 17.2423V21.7076H38.9232L38.0197 28.698H31.9964V46.6461H24.7743V28.7038H18.7337V21.7076H24.7743V16.5531C24.7743 10.5704 28.4288 7.3097 33.7687 7.3097C36.3285 7.3097 38.5235 7.50082 39.1664 7.5877V13.8368H39.1606Z" fill="white"/>
</svg>
