<svg width="47" height="47" fill="none" xmlns="http://www.w3.org/2000/svg"><path d="M46.715 23.548v10.07c0 6.261-4.569 11.705-10.706 12.862-.75.068-1.568.136-2.319.136-6.887 0-13.706.068-20.593 0-3.887-.068-7.092-1.701-9.615-4.627C1.37 39.539.346 36.613.346 33.415v-19.87C.346 7.148 4.778 1.773 11.052.548c.75-.136 1.568-.204 2.318-.204 6.887 0 13.706-.068 20.593 0 3.887.068 7.092 1.7 9.615 4.627 2.114 2.45 3.137 5.308 3.137 8.574v10.003zM4.096 23.48v9.935c0 .476 0 1.02.068 1.497.546 4.423 4.433 7.893 8.865 7.961 6.887.068 13.774 0 20.662 0 .545 0 1.022-.068 1.568-.136 4.637-.885 7.637-4.627 7.637-9.322v-19.87c0-.476 0-.953-.068-1.497-.614-4.423-4.432-7.962-8.933-7.962-6.887-.068-13.706 0-20.593 0h-.819c-4.91.613-8.387 4.491-8.387 9.527v9.867z" fill="#fff"/><path d="M23.53 10.96c6.955 0 12.547 5.647 12.547 12.588 0 6.873-5.728 12.52-12.547 12.453-6.956-.068-12.547-5.648-12.547-12.589 0-6.805 5.728-12.452 12.547-12.452zm8.796 12.588c0-4.9-3.887-8.778-8.796-8.778-4.842 0-8.797 3.879-8.797 8.778 0 4.9 3.887 8.778 8.797 8.778 4.841-.068 8.796-3.946 8.796-8.778zm3.751-10.683c-1.364 0-2.523-1.088-2.523-2.45a2.514 2.514 0 0 1 2.523-2.517c1.364 0 2.523 1.089 2.523 2.45 0 1.36-1.09 2.45-2.523 2.517z" fill="#fff"/></svg>