<svg width="21" height="21" fill="none" xmlns="http://www.w3.org/2000/svg"><path fill-rule="evenodd" clip-rule="evenodd" d="M10.214 5.061a.625.625 0 0 1 .625.625v5a.625.625 0 0 1-.625.625h-5a.625.625 0 0 1 0-1.25H9.59V5.686a.625.625 0 0 1 .625-.625z" fill="#000"/><path fill-rule="evenodd" clip-rule="evenodd" d="M9.59 10.686a.625.625 0 0 1 .624-.625h5a.625.625 0 1 1 0 1.25H10.84v4.375a.625.625 0 0 1-1.25 0v-5z" fill="#000"/><path fill-rule="evenodd" clip-rule="evenodd" d="M10.214 19.436a8.75 8.75 0 1 0 0-17.5 8.75 8.75 0 0 0 0 17.5zm0 1.25a10 10 0 1 0 0-20 10 10 0 0 0 0 20z" fill="#000"/></svg>