<svg width="21" height="21" viewBox="0 0 21 21" fill="none" xmlns="http://www.w3.org/2000/svg">
<path fill-rule="evenodd" clip-rule="evenodd" d="M10.2144 5.06128C10.3801 5.06128 10.5391 5.12713 10.6563 5.24434C10.7735 5.36155 10.8394 5.52052 10.8394 5.68628V10.6863C10.8394 10.852 10.7735 11.011 10.6563 11.1282C10.5391 11.2454 10.3801 11.3113 10.2144 11.3113H5.21436C5.0486 11.3113 4.88962 11.2454 4.77241 11.1282C4.6552 11.011 4.58936 10.852 4.58936 10.6863C4.58936 10.5205 4.6552 10.3615 4.77241 10.2443C4.88962 10.1271 5.0486 10.0613 5.21436 10.0613H9.58936V5.68628C9.58936 5.52052 9.6552 5.36155 9.77241 5.24434C9.88962 5.12713 10.0486 5.06128 10.2144 5.06128Z" fill="black"/>
<path fill-rule="evenodd" clip-rule="evenodd" d="M9.58948 10.6863C9.58948 10.5205 9.65533 10.3615 9.77254 10.2443C9.88975 10.1271 10.0487 10.0613 10.2145 10.0613H15.2145C15.3802 10.0613 15.5392 10.1271 15.6564 10.2443C15.7736 10.3615 15.8395 10.5205 15.8395 10.6863C15.8395 10.852 15.7736 11.011 15.6564 11.1282C15.5392 11.2454 15.3802 11.3113 15.2145 11.3113H10.8395V15.6863C10.8395 15.852 10.7736 16.011 10.6564 16.1282C10.5392 16.2454 10.3802 16.3113 10.2145 16.3113C10.0487 16.3113 9.88975 16.2454 9.77254 16.1282C9.65533 16.011 9.58948 15.852 9.58948 15.6863V10.6863Z" fill="black"/>
<path fill-rule="evenodd" clip-rule="evenodd" d="M10.2145 19.4363C12.5351 19.4363 14.7607 18.5144 16.4017 16.8735C18.0426 15.2325 18.9645 13.0069 18.9645 10.6863C18.9645 8.36563 18.0426 6.14004 16.4017 4.49909C14.7607 2.85815 12.5351 1.93628 10.2145 1.93628C7.89383 1.93628 5.66824 2.85815 4.02729 4.49909C2.38635 6.14004 1.46448 8.36563 1.46448 10.6863C1.46448 13.0069 2.38635 15.2325 4.02729 16.8735C5.66824 18.5144 7.89383 19.4363 10.2145 19.4363ZM10.2145 20.6863C12.8666 20.6863 15.4102 19.6327 17.2855 17.7573C19.1609 15.882 20.2145 13.3384 20.2145 10.6863C20.2145 8.03411 19.1609 5.49058 17.2855 3.61521C15.4102 1.73985 12.8666 0.686279 10.2145 0.686279C7.56231 0.686279 5.01877 1.73985 3.14341 3.61521C1.26805 5.49058 0.214478 8.03411 0.214478 10.6863C0.214478 13.3384 1.26805 15.882 3.14341 17.7573C5.01877 19.6327 7.56231 20.6863 10.2145 20.6863Z" fill="black"/>
</svg>
