<svg xmlns="http://www.w3.org/2000/svg" xmlns:xlink="http://www.w3.org/1999/xlink" width="152" height="152" viewBox="0 0 152 152">
    <defs>
        <path id="a" d="M.104 0h4.434v5.241H.104z"/>
        <path id="c" d="M.104 0h4.434v5.241H.104z"/>
        <path id="e" d="M.104 0h4.434v5.241H.104z"/>
        <path id="g" d="M.104 0h4.434v5.241H.104z"/>
        <path id="i" d="M.104 0h4.434v5.241H.104z"/>
        <path id="k" d="M.104 0h4.434v5.241H.104z"/>
        <path id="m" d="M.104 0h4.434v5.241H.104z"/>
        <path id="o" d="M0 152h152V0H0z"/>
        <linearGradient id="q" x1="99.619%" x2=".099%" y1="50.038%" y2="50.038%">
            <stop offset=".09%" stop-color="#F93E56"/>
            <stop offset="99.975%" stop-color="#FE6561"/>
        </linearGradient>
    </defs>
    <g fill="none" fill-rule="evenodd">
        <g>
            <path fill="#EBECEE" d="M42.335 2.217v3.024h4.434V2.217a2.217 2.217 0 0 0-4.434 0M49.793.404a2.217 2.217 0 1 1 0 4.434 2.217 2.217 0 0 1 0-4.434M52.817 2.217v3.024h4.435V2.217a2.217 2.217 0 0 0-4.435 0M63.3 2.217v3.024h4.434V2.217a2.217 2.217 0 0 0-4.434 0M70.759.404a2.217 2.217 0 1 1 0 4.434 2.217 2.217 0 0 1 0-4.434M76 .404a2.217 2.217 0 1 1 0 4.434 2.217 2.217 0 0 1 0-4.434M91.724.404a2.217 2.217 0 1 1 0 4.434 2.217 2.217 0 0 1 0-4.434M94.748 2.217v3.024h4.435V2.217a2.217 2.217 0 0 0-4.435 0M102.207.404a2.217 2.217 0 1 1 0 4.434 2.217 2.217 0 0 1 0-4.434M107.448.404a2.217 2.217 0 1 1 0 4.434 2.217 2.217 0 0 1 0-4.434"/>
            <path fill="#EBECEE" d="M46.769 8.266V5.24h-4.434v3.025a2.217 2.217 0 0 0 4.434 0M52.817 7.862v2.62h4.435v-5.24h-4.435zM67.734 8.266V5.24H63.3v3.025a2.217 2.217 0 0 0 4.434 0M86.483 5.645a2.217 2.217 0 1 1 0 4.434 2.217 2.217 0 0 1 0-4.434M94.748 7.862v2.62h4.435v-5.24h-4.435zM57.252 13.507v-3.024h-4.435v3.024a2.217 2.217 0 0 0 4.435 0M70.759 10.886a2.217 2.217 0 1 1 0 4.435 2.217 2.217 0 0 1 0-4.435M73.783 12.7v3.024h4.434V12.7a2.217 2.217 0 0 0-4.434 0M99.183 13.507v-3.024h-4.434v3.024a2.217 2.217 0 0 0 4.434 0M44.552 16.128a2.217 2.217 0 1 1 0 4.434 2.217 2.217 0 0 1 0-4.434M49.793 16.128a2.217 2.217 0 1 1 0 4.434 2.217 2.217 0 0 1 0-4.434M58.059 17.941V20.966h4.434V17.94a2.217 2.217 0 0 0-4.434 0M63.3 17.941V20.966h4.434V17.94a2.217 2.217 0 0 0-4.434 0M78.217 18.748v-3.024h-4.434v3.024a2.217 2.217 0 0 0 4.434 0M79.024 17.941V20.966h4.434V17.94a2.217 2.217 0 0 0-4.434 0M91.724 16.128a2.217 2.217 0 1 1 0 4.434 2.217 2.217 0 0 1 0-4.434"/>
            <path fill="#EBECEE" d="M62.493 23.99v-3.025h-4.434V23.99a2.217 2.217 0 0 0 4.434 0M63.3 23.586v2.62h4.434v-5.24H63.3zM83.458 23.99v-3.025h-4.434V23.99a2.217 2.217 0 0 0 4.434 0M84.266 23.183v3.024H88.7v-3.024a2.217 2.217 0 0 0-4.434 0M99.99 23.183v3.024h4.434v-3.024a2.217 2.217 0 0 0-4.434 0M49.793 26.61a2.217 2.217 0 1 1 0 4.435 2.217 2.217 0 0 1 0-4.435M63.3 28.828v2.62h4.434v-5.241H63.3zM84.266 28.828v2.62H88.7v-5.241h-4.434zM94.748 28.424v3.024h4.435v-3.024a2.217 2.217 0 0 0-4.435 0M104.424 29.231v-3.024H99.99v3.024a2.217 2.217 0 0 0 4.434 0M42.335 33.665v3.025h4.434v-3.025a2.217 2.217 0 0 0-4.434 0M52.817 33.665v3.025h4.435v-3.025a2.217 2.217 0 0 0-4.435 0M67.734 34.473v-3.025H63.3v3.025a2.217 2.217 0 0 0 4.434 0M76 31.852a2.217 2.217 0 1 1 0 4.434 2.217 2.217 0 0 1 0-4.434M84.266 34.069v2.62H88.7v-5.24h-4.434zM94.748 34.069v2.62h4.435v-5.24h-4.435zM107.448 31.852a2.217 2.217 0 1 1 0 4.434 2.217 2.217 0 0 1 0-4.434M46.769 39.714V36.69h-4.434v3.024a2.217 2.217 0 0 0 4.434 0M49.793 37.093a2.217 2.217 0 1 1 0 4.434 2.217 2.217 0 0 1 0-4.434M57.252 39.714V36.69h-4.435v3.024a2.217 2.217 0 0 0 4.435 0M84.266 39.31v2.621H88.7V36.69h-4.434zM89.507 38.907v3.024h4.434v-3.024a2.217 2.217 0 0 0-4.434 0M99.183 39.714V36.69h-4.434v3.024a2.217 2.217 0 0 0 4.434 0M102.207 37.093a2.217 2.217 0 1 1 0 4.434 2.217 2.217 0 0 1 0-4.434M.404 44.148v3.024h4.434v-3.024a2.217 2.217 0 0 0-4.434 0M10.886 44.148v3.024h4.435v-3.024a2.217 2.217 0 0 0-4.435 0M16.128 44.148v3.024h4.434v-3.024a2.217 2.217 0 0 0-4.434 0M26.61 44.148v3.024h4.435v-3.024a2.217 2.217 0 0 0-4.435 0M34.069 42.335a2.217 2.217 0 1 1 0 4.434 2.217 2.217 0 0 1 0-4.434M39.31 42.335a2.217 2.217 0 1 1 0 4.434 2.217 2.217 0 0 1 0-4.434M63.3 44.148v3.024h4.434v-3.024a2.217 2.217 0 0 0-4.434 0M70.759 42.335a2.217 2.217 0 1 1 0 4.434 2.217 2.217 0 0 1 0-4.434M73.783 44.148v3.024h4.434v-3.024a2.217 2.217 0 0 0-4.434 0"/>
            <path fill="#EBECEE" d="M84.266 44.552v2.62H88.7v-5.241h-4.434zM89.507 44.552v2.62h4.434v-5.241h-4.434zM115.714 44.148v3.024h4.434v-3.024a2.217 2.217 0 0 0-4.434 0M133.655 42.335a2.217 2.217 0 1 1 0 4.434 2.217 2.217 0 0 1 0-4.434M144.138 42.335a2.217 2.217 0 1 1 0 4.434 2.217 2.217 0 0 1 0-4.434M147.162 44.148v3.024h4.434v-3.024a2.217 2.217 0 0 0-4.434 0M.404 49.793v2.62h4.434v-5.24H.404zM5.645 49.39v3.024h4.434V49.39a2.217 2.217 0 0 0-4.434 0M15.32 50.197V47.172h-4.434v3.025a2.217 2.217 0 0 0 4.435 0M20.562 50.197V47.172h-4.434v3.025a2.217 2.217 0 0 0 4.434 0M23.586 47.576a2.217 2.217 0 1 1 0 4.434 2.217 2.217 0 0 1 0-4.434M26.61 49.793v2.62h4.435v-5.24H26.61zM44.552 47.576a2.217 2.217 0 1 1 0 4.434 2.217 2.217 0 0 1 0-4.434M47.576 49.39v3.024h4.434V49.39a2.217 2.217 0 0 0-4.434 0M52.817 49.39v3.024h4.435V49.39a2.217 2.217 0 0 0-4.435 0M67.734 50.197V47.172H63.3v3.025a2.217 2.217 0 0 0 4.434 0M73.783 49.793v2.62h4.434v-5.24h-4.434zM84.266 49.793v2.62H88.7v-5.24h-4.434zM93.941 50.197V47.172h-4.434v3.025a2.217 2.217 0 0 0 4.434 0M94.748 49.39v3.024h4.435V49.39a2.217 2.217 0 0 0-4.435 0M102.207 47.576a2.217 2.217 0 1 1 0 4.434 2.217 2.217 0 0 1 0-4.434M115.714 49.793v2.62h4.434v-5.24h-4.434zM123.172 47.576a2.217 2.217 0 1 1 0 4.434 2.217 2.217 0 0 1 0-4.434M128.414 47.576a2.217 2.217 0 1 1 0 4.434 2.217 2.217 0 0 1 0-4.434"/>
            <path fill="#EBECEE" d="M151.596 50.197V47.172h-4.434v3.025a2.217 2.217 0 0 0 4.434 0M4.838 55.438v-3.024H.404v3.024a2.217 2.217 0 0 0 4.434 0M10.08 55.438v-3.024H5.644v3.024a2.217 2.217 0 0 0 4.434 0M31.045 55.438v-3.024H26.61v3.024a2.217 2.217 0 0 0 4.434 0M34.069 52.817a2.217 2.217 0 1 1 0 4.435 2.217 2.217 0 0 1 0-4.435M47.576 55.034v2.621h4.434v-5.241h-4.434zM57.252 55.438v-3.024h-4.435v3.024a2.217 2.217 0 0 0 4.435 0M58.059 54.63v3.025h4.434v-3.024a2.217 2.217 0 0 0-4.434 0M68.541 54.63v3.025h4.435v-3.024a2.217 2.217 0 0 0-4.435 0M78.217 55.438v-3.024h-4.434v3.024a2.217 2.217 0 0 0 4.434 0M88.7 55.438v-3.024h-4.434v3.024a2.217 2.217 0 0 0 4.434 0M94.748 55.034v2.621h4.435v-5.241h-4.435zM115.714 55.034v2.621h4.434v-5.241h-4.434zM138.897 52.817a2.217 2.217 0 1 1 0 4.435 2.217 2.217 0 0 1 0-4.435M144.138 52.817a2.217 2.217 0 1 1 0 4.435 2.217 2.217 0 0 1 0-4.435M52.01 60.68v-3.025h-4.434v3.024a2.217 2.217 0 0 0 4.434 0M58.059 60.276v2.62h4.434v-5.24h-4.434zM72.976 60.68v-3.025h-4.434v3.024a2.217 2.217 0 0 0 4.434 0M81.241 58.059a2.217 2.217 0 1 1 0 4.434 2.217 2.217 0 0 1 0-4.434M99.183 60.68v-3.025h-4.434v3.024a2.217 2.217 0 0 0 4.434 0M102.207 58.059a2.217 2.217 0 1 1 0 4.434 2.217 2.217 0 0 1 0-4.434M120.148 60.68v-3.025h-4.434v3.024a2.217 2.217 0 0 0 4.434 0M123.172 58.059a2.217 2.217 0 1 1 0 4.434 2.217 2.217 0 0 1 0-4.434M149.38 58.059a2.217 2.217 0 1 1 0 4.434 2.217 2.217 0 0 1 0-4.434M7.862 63.3a2.217 2.217 0 1 1 0 4.434 2.217 2.217 0 0 1 0-4.434M16.128 65.114v3.024h4.434v-3.024a2.217 2.217 0 0 0-4.434 0M23.586 63.3a2.217 2.217 0 1 1 0 4.434 2.217 2.217 0 0 1 0-4.434M34.069 63.3a2.217 2.217 0 1 1 0 4.434 2.217 2.217 0 0 1 0-4.434M37.093 65.114v3.024h4.434v-3.024a2.217 2.217 0 0 0-4.434 0M42.335 65.114v3.024h4.434v-3.024a2.217 2.217 0 0 0-4.434 0M58.059 65.517v2.62h4.434v-5.24h-4.434zM76 63.3a2.217 2.217 0 1 1 0 4.434 2.217 2.217 0 0 1 0-4.434M89.507 65.114v3.024h4.434v-3.024a2.217 2.217 0 0 0-4.434 0M133.655 63.3a2.217 2.217 0 1 1 0 4.434 2.217 2.217 0 0 1 0-4.434M136.68 65.114v3.024h4.434v-3.024a2.217 2.217 0 0 0-4.435 0M2.62 68.541a2.217 2.217 0 1 1 0 4.435 2.217 2.217 0 0 1 0-4.435M10.886 70.355v3.024h4.435v-3.024a2.217 2.217 0 0 0-4.435 0M20.562 71.162v-3.024h-4.434v3.024a2.217 2.217 0 0 0 4.434 0M41.527 71.162v-3.024h-4.434v3.024a2.217 2.217 0 0 0 4.434 0M42.335 70.759v2.62h4.434v-5.241h-4.434zM55.034 68.541a2.217 2.217 0 1 1 0 4.435 2.217 2.217 0 0 1 0-4.435M58.059 70.759v2.62h4.434v-5.241h-4.434zM63.3 70.355v3.024h4.434v-3.024a2.217 2.217 0 0 0-4.434 0M68.541 70.355v3.024h4.435v-3.024a2.217 2.217 0 0 0-4.435 0M81.241 68.541a2.217 2.217 0 1 1 0 4.435 2.217 2.217 0 0 1 0-4.435M86.483 68.541a2.217 2.217 0 1 1 0 4.435 2.217 2.217 0 0 1 0-4.435M89.507 70.759v2.62h4.434v-5.241h-4.434zM96.966 68.541a2.217 2.217 0 1 1 0 4.435 2.217 2.217 0 0 1 0-4.435M99.99 70.355v3.024h4.434v-3.024a2.217 2.217 0 0 0-4.434 0M112.69 68.541a2.217 2.217 0 1 1 0 4.435 2.217 2.217 0 0 1 0-4.435M115.714 70.355v3.024h4.434v-3.024a2.217 2.217 0 0 0-4.434 0M136.68 70.759v2.62h4.434v-5.241h-4.435zM141.92 70.355v3.024h4.435v-3.024a2.217 2.217 0 0 0-4.434 0M147.162 70.355v3.024h4.434v-3.024a2.217 2.217 0 0 0-4.434 0M7.862 73.783a2.217 2.217 0 1 1 0 4.434 2.217 2.217 0 0 1 0-4.434M10.886 76v2.62h4.435v-5.24h-4.435zM28.828 73.783a2.217 2.217 0 1 1 0 4.434 2.217 2.217 0 0 1 0-4.434M34.069 73.783a2.217 2.217 0 1 1 0 4.434 2.217 2.217 0 0 1 0-4.434M42.335 76v2.62h4.434v-5.24h-4.434zM47.576 75.596v3.025h4.434v-3.025a2.217 2.217 0 0 0-4.434 0M62.493 76.404V73.379h-4.434v3.025a2.217 2.217 0 0 0 4.434 0M67.734 76.404V73.379H63.3v3.025a2.217 2.217 0 0 0 4.434 0M72.976 76.404V73.379h-4.434v3.025a2.217 2.217 0 0 0 4.434 0M93.941 76.404V73.379h-4.434v3.025a2.217 2.217 0 0 0 4.434 0M99.99 76v2.62h4.434v-5.24H99.99zM120.148 76.404V73.379h-4.434v3.025a2.217 2.217 0 0 0 4.434 0M128.414 73.783a2.217 2.217 0 1 1 0 4.434 2.217 2.217 0 0 1 0-4.434M141.114 76.404V73.379h-4.434v3.025a2.217 2.217 0 0 0 4.434 0M141.92 76v2.62h4.435v-5.24h-4.434zM151.596 76.404V73.379h-4.434v3.025a2.217 2.217 0 0 0 4.434 0M2.62 79.024a2.217 2.217 0 1 1 0 4.434 2.217 2.217 0 0 1 0-4.434M10.886 81.241v2.621h4.435v-5.241h-4.435zM21.37 80.838v3.024h4.433v-3.024a2.217 2.217 0 0 0-4.434 0M39.31 79.024a2.217 2.217 0 1 1 0 4.434 2.217 2.217 0 0 1 0-4.434M46.769 81.645v-3.024h-4.434v3.024a2.217 2.217 0 0 0 4.434 0"/>
            <path fill="#EBECEE" d="M52.01 81.645v-3.024h-4.434v3.024a2.217 2.217 0 0 0 4.434 0M55.034 79.024a2.217 2.217 0 1 1 0 4.434 2.217 2.217 0 0 1 0-4.434M76 79.024a2.217 2.217 0 1 1 0 4.434 2.217 2.217 0 0 1 0-4.434M94.748 80.838v3.024h4.435v-3.024a2.217 2.217 0 0 0-4.435 0M99.99 81.241v2.621h4.434v-5.241H99.99zM110.473 80.838v3.024h4.434v-3.024a2.217 2.217 0 0 0-4.434 0M120.955 80.838v3.024h4.434v-3.024a2.217 2.217 0 0 0-4.434 0M141.92 81.241v2.621h4.435v-5.241h-4.434zM7.862 84.266a2.217 2.217 0 1 1 0 4.434 2.217 2.217 0 0 1 0-4.434M15.32 86.886v-3.024h-4.434v3.024a2.217 2.217 0 0 0 4.435 0M18.345 84.266a2.217 2.217 0 1 1 0 4.434 2.217 2.217 0 0 1 0-4.434M25.803 86.886v-3.024H21.37v3.024a2.217 2.217 0 0 0 4.434 0M26.61 86.08V89.102h4.435V86.08a2.217 2.217 0 0 0-4.435 0M34.069 84.266a2.217 2.217 0 1 1 0 4.434 2.217 2.217 0 0 1 0-4.434M60.276 84.266a2.217 2.217 0 1 1 0 4.434 2.217 2.217 0 0 1 0-4.434M63.3 86.08V89.102h4.434V86.08a2.217 2.217 0 0 0-4.434 0M99.183 86.886v-3.024h-4.434v3.024a2.217 2.217 0 0 0 4.434 0M104.424 86.886v-3.024H99.99v3.024a2.217 2.217 0 0 0 4.434 0M114.907 86.886v-3.024h-4.434v3.024a2.217 2.217 0 0 0 4.434 0M125.39 86.886v-3.024h-4.435v3.024a2.217 2.217 0 0 0 4.434 0M128.414 84.266a2.217 2.217 0 1 1 0 4.434 2.217 2.217 0 0 1 0-4.434M131.438 86.08V89.102h4.434V86.08a2.217 2.217 0 0 0-4.434 0M141.92 86.483v2.62h4.435v-5.24h-4.434zM26.61 91.724v2.62h4.435v-5.24H26.61zM44.552 89.507a2.217 2.217 0 1 1 0 4.434 2.217 2.217 0 0 1 0-4.434M67.734 92.128V89.103H63.3v3.025a2.217 2.217 0 0 0 4.434 0M68.541 91.32v3.025h4.435V91.32a2.217 2.217 0 0 0-4.435 0M79.024 91.32v3.025h4.434V91.32a2.217 2.217 0 0 0-4.434 0M107.448 89.507a2.217 2.217 0 1 1 0 4.434 2.217 2.217 0 0 1 0-4.434M135.872 92.128V89.103h-4.434v3.025a2.217 2.217 0 0 0 4.434 0M136.68 91.32v3.025h4.434V91.32a2.217 2.217 0 0 0-4.435 0"/>
            <path fill="#EBECEE" d="M146.355 92.128V89.103h-4.434v3.025a2.217 2.217 0 0 0 4.434 0M2.62 94.748a2.217 2.217 0 1 1 0 4.435 2.217 2.217 0 0 1 0-4.435M23.586 94.748a2.217 2.217 0 1 1 0 4.435 2.217 2.217 0 0 1 0-4.435M26.61 96.966v2.62h4.435v-5.241H26.61zM34.069 94.748a2.217 2.217 0 1 1 0 4.435 2.217 2.217 0 0 1 0-4.435M37.093 96.562v3.024h4.434v-3.024a2.217 2.217 0 0 0-4.434 0M49.793 94.748a2.217 2.217 0 1 1 0 4.435 2.217 2.217 0 0 1 0-4.435M55.034 94.748a2.217 2.217 0 1 1 0 4.435 2.217 2.217 0 0 1 0-4.435M72.976 97.37v-3.025h-4.434v3.024a2.217 2.217 0 0 0 4.434 0M73.783 96.562v3.024h4.434v-3.024a2.217 2.217 0 0 0-4.434 0M79.024 96.966v2.62h4.434v-5.241h-4.434zM84.266 96.562v3.024H88.7v-3.024a2.217 2.217 0 0 0-4.434 0M110.473 96.562v3.024h4.434v-3.024a2.217 2.217 0 0 0-4.434 0M117.931 94.748a2.217 2.217 0 1 1 0 4.435 2.217 2.217 0 0 1 0-4.435M123.172 94.748a2.217 2.217 0 1 1 0 4.435 2.217 2.217 0 0 1 0-4.435M136.68 96.966v2.62h4.434v-5.241h-4.435zM10.886 101.803v3.025h4.435v-3.025a2.217 2.217 0 0 0-4.435 0M16.128 101.803v3.025h4.434v-3.025a2.217 2.217 0 0 0-4.434 0M31.045 102.61v-3.024H26.61v3.025a2.217 2.217 0 0 0 4.434 0M37.093 102.207v2.62h4.434v-5.24h-4.434zM42.335 101.803v3.025h4.434v-3.025a2.217 2.217 0 0 0-4.434 0M73.783 102.207v2.62h4.434v-5.24h-4.434zM79.024 102.207v2.62h4.434v-5.24h-4.434zM88.7 102.61v-3.024h-4.434v3.025a2.217 2.217 0 0 0 4.434 0M89.507 101.803v3.025h4.434v-3.025a2.217 2.217 0 0 0-4.434 0M94.748 101.803v3.025h4.435v-3.025a2.217 2.217 0 0 0-4.435 0M102.207 99.99a2.217 2.217 0 1 1 0 4.434 2.217 2.217 0 0 1 0-4.434M110.473 102.207v2.62h4.434v-5.24h-4.434zM126.197 101.803v3.025h4.434v-3.025a2.217 2.217 0 0 0-4.434 0M136.68 102.207v2.62h4.434v-5.24h-4.435zM7.862 105.231a2.217 2.217 0 1 1 0 4.434 2.217 2.217 0 0 1 0-4.434M15.32 107.852v-3.024h-4.434v3.024a2.217 2.217 0 0 0 4.435 0M20.562 107.852v-3.024h-4.434v3.024a2.217 2.217 0 0 0 4.434 0M23.586 105.231a2.217 2.217 0 1 1 0 4.434 2.217 2.217 0 0 1 0-4.434M34.069 105.231a2.217 2.217 0 1 1 0 4.434 2.217 2.217 0 0 1 0-4.434M41.527 107.852v-3.024h-4.434v3.024a2.217 2.217 0 0 0 4.434 0"/>
            <path fill="#EBECEE" d="M42.335 107.448v2.621h4.434v-5.241h-4.434zM55.034 105.231a2.217 2.217 0 1 1 0 4.434 2.217 2.217 0 0 1 0-4.434M63.3 107.045v3.024h4.434v-3.024a2.217 2.217 0 0 0-4.434 0M70.759 105.231a2.217 2.217 0 1 1 0 4.434 2.217 2.217 0 0 1 0-4.434M73.783 107.448v2.621h4.434v-5.241h-4.434zM83.458 107.852v-3.024h-4.434v3.024a2.217 2.217 0 0 0 4.434 0M93.941 107.852v-3.024h-4.434v3.024a2.217 2.217 0 0 0 4.434 0M99.183 107.852v-3.024h-4.434v3.024a2.217 2.217 0 0 0 4.434 0M105.231 107.045v3.024h4.434v-3.024a2.217 2.217 0 0 0-4.434 0M114.907 107.852v-3.024h-4.434v3.024a2.217 2.217 0 0 0 4.434 0M117.931 105.231a2.217 2.217 0 1 1 0 4.434 2.217 2.217 0 0 1 0-4.434M123.172 105.231a2.217 2.217 0 1 1 0 4.434 2.217 2.217 0 0 1 0-4.434M126.197 107.448v2.621h4.434v-5.241h-4.434zM131.438 107.045v3.024h4.434v-3.024a2.217 2.217 0 0 0-4.434 0M136.68 107.448v2.621h4.434v-5.241h-4.435zM42.335 112.69v2.62h4.434v-5.241h-4.434zM60.276 110.473a2.217 2.217 0 1 1 0 4.434 2.217 2.217 0 0 1 0-4.434M67.734 113.093v-3.024H63.3v3.024a2.217 2.217 0 0 0 4.434 0M78.217 113.093v-3.024h-4.434v3.024a2.217 2.217 0 0 0 4.434 0M105.231 112.69v2.62h4.434v-5.241h-4.434zM126.197 112.69v2.62h4.434v-5.241h-4.434zM131.438 112.69v2.62h4.434v-5.241h-4.434zM141.114 113.093v-3.024h-4.434v3.024a2.217 2.217 0 0 0 4.434 0M141.92 112.286v3.024h4.435v-3.024a2.217 2.217 0 0 0-4.434 0M149.38 110.473a2.217 2.217 0 1 1 0 4.434 2.217 2.217 0 0 1 0-4.434M42.335 117.931v2.62h4.434v-5.24h-4.434zM47.576 117.527v3.025h4.434v-3.025a2.217 2.217 0 0 0-4.434 0M86.483 115.714a2.217 2.217 0 1 1 0 4.434 2.217 2.217 0 0 1 0-4.434M96.966 115.714a2.217 2.217 0 1 1 0 4.434 2.217 2.217 0 0 1 0-4.434M102.207 115.714a2.217 2.217 0 1 1 0 4.434 2.217 2.217 0 0 1 0-4.434M105.231 117.931v2.62h4.434v-5.24h-4.434zM117.931 115.714a2.217 2.217 0 1 1 0 4.434 2.217 2.217 0 0 1 0-4.434M126.197 117.931v2.62h4.434v-5.24h-4.434zM131.438 117.931v2.62h4.434v-5.24h-4.434z"/>
            <path fill="#EBECEE" d="M146.355 118.335v-3.025h-4.434v3.025a2.217 2.217 0 0 0 4.434 0M46.769 123.576v-3.024h-4.434v3.024a2.217 2.217 0 0 0 4.434 0M47.576 123.172v2.621h4.434v-5.241h-4.434zM52.817 122.769v3.024h4.435v-3.024a2.217 2.217 0 0 0-4.435 0M60.276 120.955a2.217 2.217 0 1 1 0 4.434 2.217 2.217 0 0 1 0-4.434M70.759 120.955a2.217 2.217 0 1 1 0 4.434 2.217 2.217 0 0 1 0-4.434M76 120.955a2.217 2.217 0 1 1 0 4.434 2.217 2.217 0 0 1 0-4.434M79.024 122.769v3.024h4.434v-3.024a2.217 2.217 0 0 0-4.434 0M105.231 123.172v2.621h4.434v-5.241h-4.434zM126.197 123.172v2.621h4.434v-5.241h-4.434zM135.872 123.576v-3.024h-4.434v3.024a2.217 2.217 0 0 0 4.434 0M52.01 128.817v-3.024h-4.434v3.024a2.217 2.217 0 0 0 4.434 0M57.252 128.817v-3.024h-4.435v3.024a2.217 2.217 0 0 0 4.435 0M79.024 128.414v2.62h4.434v-5.24h-4.434zM84.266 128.01V131.034H88.7v-3.024a2.217 2.217 0 0 0-4.434 0M91.724 126.197a2.217 2.217 0 1 1 0 4.434 2.217 2.217 0 0 1 0-4.434M105.231 128.414v2.62h4.434v-5.24h-4.434zM110.473 128.01V131.034h4.434v-3.024a2.217 2.217 0 0 0-4.434 0M117.931 126.197a2.217 2.217 0 1 1 0 4.434 2.217 2.217 0 0 1 0-4.434M120.955 128.01V131.034h4.434v-3.024a2.217 2.217 0 0 0-4.434 0M126.197 128.414v2.62h4.434v-5.24h-4.434zM138.897 126.197a2.217 2.217 0 1 1 0 4.434 2.217 2.217 0 0 1 0-4.434M144.138 126.197a2.217 2.217 0 1 1 0 4.434 2.217 2.217 0 0 1 0-4.434M147.162 128.01V131.034h4.434v-3.024a2.217 2.217 0 0 0-4.434 0M42.335 133.252v3.024h4.434v-3.024a2.217 2.217 0 0 0-4.434 0M60.276 131.438a2.217 2.217 0 1 1 0 4.434 2.217 2.217 0 0 1 0-4.434M65.517 131.438a2.217 2.217 0 1 1 0 4.434 2.217 2.217 0 0 1 0-4.434M76 131.438a2.217 2.217 0 1 1 0 4.434 2.217 2.217 0 0 1 0-4.434M83.458 134.059V131.035h-4.434v3.024a2.217 2.217 0 0 0 4.434 0M88.7 134.059V131.035h-4.434v3.024a2.217 2.217 0 0 0 4.434 0M102.207 131.438a2.217 2.217 0 1 1 0 4.434 2.217 2.217 0 0 1 0-4.434M109.665 134.059V131.035h-4.434v3.024a2.217 2.217 0 0 0 4.434 0M110.473 133.655v2.62h4.434v-5.24h-4.434zM120.955 133.655v2.62h4.434v-5.24h-4.434zM130.63 134.059V131.035h-4.433v3.024a2.217 2.217 0 0 0 4.434 0M133.655 131.438a2.217 2.217 0 1 1 0 4.434 2.217 2.217 0 0 1 0-4.434M147.162 133.655v2.62h4.434v-5.24h-4.434zM46.769 139.3v-3.024h-4.434v3.024a2.217 2.217 0 0 0 4.434 0M52.817 138.493v3.024h4.435v-3.024a2.217 2.217 0 0 0-4.435 0M70.759 136.68a2.217 2.217 0 1 1 0 4.434 2.217 2.217 0 0 1 0-4.435M110.473 138.897v2.62h4.434v-5.241h-4.434zM120.955 138.897v2.62h4.434v-5.241h-4.434zM138.897 136.68a2.217 2.217 0 1 1 0 4.434 2.217 2.217 0 0 1 0-4.435M151.596 139.3v-3.024h-4.434v3.024a2.217 2.217 0 0 0 4.434 0M47.576 143.734v3.025h4.434v-3.025a2.217 2.217 0 0 0-4.434 0M52.817 144.138v2.62h4.435v-5.24h-4.435zM58.059 143.734v3.025h4.434v-3.025a2.217 2.217 0 0 0-4.434 0M63.3 143.734v3.025h4.434v-3.025a2.217 2.217 0 0 0-4.434 0M73.783 143.734v3.025h4.434v-3.025a2.217 2.217 0 0 0-4.434 0M81.241 141.92a2.217 2.217 0 1 1 0 4.435 2.217 2.217 0 0 1 0-4.434M86.483 141.92a2.217 2.217 0 1 1 0 4.435 2.217 2.217 0 0 1 0-4.434M105.231 143.734v3.025h4.434v-3.025a2.217 2.217 0 0 0-4.434 0M114.907 144.542v-3.025h-4.434v3.025a2.217 2.217 0 0 0 4.434 0M125.39 144.542v-3.025h-4.435v3.025a2.217 2.217 0 0 0 4.434 0M133.655 141.92a2.217 2.217 0 1 1 0 4.435 2.217 2.217 0 0 1 0-4.434M141.92 143.734v3.025h4.435v-3.025a2.217 2.217 0 0 0-4.434 0M44.552 147.162a2.217 2.217 0 1 1 0 4.434 2.217 2.217 0 0 1 0-4.434"/>
            <g transform="translate(47.472 146.759)">
                <mask id="b" fill="#fff">
                    <use xlink:href="#a"/>
                </mask>
                <path fill="#EBECEE" d="M4.538 3.024V0H.104v3.024a2.217 2.217 0 0 0 4.434 0" mask="url(#b)"/>
            </g>
            <g transform="translate(52.713 146.759)">
                <mask id="d" fill="#fff">
                    <use xlink:href="#c"/>
                </mask>
                <path fill="#EBECEE" d="M4.538 3.024V0H.104v3.024a2.217 2.217 0 0 0 4.434 0" mask="url(#d)"/>
            </g>
            <g transform="translate(57.955 146.759)">
                <mask id="f" fill="#fff">
                    <use xlink:href="#e"/>
                </mask>
                <path fill="#EBECEE" d="M4.538 3.024V0H.104v3.024a2.217 2.217 0 0 0 4.434 0" mask="url(#f)"/>
            </g>
            <g transform="translate(63.196 146.759)">
                <mask id="h" fill="#fff">
                    <use xlink:href="#g"/>
                </mask>
                <path fill="#EBECEE" d="M4.538 3.024V0H.104v3.024a2.217 2.217 0 0 0 4.434 0" mask="url(#h)"/>
            </g>
            <path fill="#EBECEE" d="M70.759 147.162a2.217 2.217 0 1 1 0 4.434 2.217 2.217 0 0 1 0-4.434"/>
            <g transform="translate(73.679 146.759)">
                <mask id="j" fill="#fff">
                    <use xlink:href="#i"/>
                </mask>
                <path fill="#EBECEE" d="M4.538 3.024V0H.104v3.024a2.217 2.217 0 0 0 4.434 0" mask="url(#j)"/>
            </g>
            <path fill="#EBECEE" d="M96.966 147.162a2.217 2.217 0 1 1 0 4.434 2.217 2.217 0 0 1 0-4.434M102.207 147.162a2.217 2.217 0 1 1 0 4.434 2.217 2.217 0 0 1 0-4.434"/>
            <g transform="translate(105.127 146.759)">
                <mask id="l" fill="#fff">
                    <use xlink:href="#k"/>
                </mask>
                <path fill="#EBECEE" d="M4.538 3.024V0H.104v3.024a2.217 2.217 0 0 0 4.434 0" mask="url(#l)"/>
            </g>
            <path fill="#EBECEE" d="M117.931 147.162a2.217 2.217 0 1 1 0 4.434 2.217 2.217 0 0 1 0-4.434"/>
            <g transform="translate(141.817 146.759)">
                <mask id="n" fill="#fff">
                    <use xlink:href="#m"/>
                </mask>
                <path fill="#EBECEE" d="M4.538 3.024V0H.104v3.024a2.217 2.217 0 0 0 4.434 0" mask="url(#n)"/>
            </g>
            <path fill="#EBECEE" d="M31.186 24.3c0 3.794-3.15 6.882-7.024 6.882l-5.817.001-5.817-.001c-3.874 0-7.025-3.088-7.025-6.883V12.386a6.73 6.73 0 0 1 .85-3.277 6.98 6.98 0 0 1 2.145-2.356 7.083 7.083 0 0 1 4.028-1.247h11.637c3.873 0 7.023 3.086 7.023 6.88v11.913zM24.163.002H12.526C6.855.003 2.05 3.75.514 8.872A12.156 12.156 0 0 0 0 12.386v11.913c0 6.831 5.62 12.387 12.526 12.387h11.637c6.905 0 12.527-5.556 12.527-12.387V12.386C36.69 5.558 31.069.003 24.163.003zM146.497 24.3c0 3.794-3.15 6.882-7.025 6.882l-5.817.001-5.817-.001c-3.874 0-7.024-3.088-7.024-6.883V12.386a6.73 6.73 0 0 1 .848-3.277 6.982 6.982 0 0 1 2.146-2.356 7.084 7.084 0 0 1 4.028-1.247h11.638c3.872 0 7.023 3.086 7.023 6.88v11.913zM139.474.002h-11.637c-5.672 0-10.477 3.747-12.013 8.869a12.156 12.156 0 0 0-.514 3.514v11.913c0 6.831 5.621 12.387 12.527 12.387h11.637c6.905 0 12.526-5.556 12.526-12.387V12.386C152 5.558 146.38.003 139.474.003zM31.186 139.61c0 3.795-3.15 6.882-7.024 6.882l-5.817.002-5.817-.002c-3.874 0-7.025-3.088-7.025-6.883v-11.913a6.73 6.73 0 0 1 .85-3.277 6.98 6.98 0 0 1 2.145-2.356 7.083 7.083 0 0 1 4.028-1.246h11.637c3.873 0 7.023 3.086 7.023 6.879v11.913zm-7.023-24.297H12.526c-5.671 0-10.476 3.747-12.012 8.869A12.161 12.161 0 0 0 0 127.696v11.913c0 6.832 5.62 12.387 12.526 12.387l5.819.001 5.818-.001c6.905 0 12.527-5.556 12.527-12.387v-11.913c0-6.828-5.621-12.383-12.527-12.383z"/>
            <mask id="p" fill="#fff">
                <use xlink:href="#o"/>
            </mask>
            <path fill="#EBECEE" d="M10.483 26.207h15.724V10.483H10.483zM125.793 26.207h15.724V10.483h-15.724zM10.483 141.517h15.724v-15.724H10.483z" mask="url(#p)"/>
        </g>
        <path fill="url(#q)" d="M49.55 70.978c0-14.793 11.993-26.784 26.785-26.784 14.793 0 26.784 11.991 26.784 26.784 0 14.792-11.991 26.784-26.784 26.784-14.792 0-26.784-11.992-26.784-26.784"/>
        <path fill="#3B4256" d="M90.438 68.386l-6.33 5.23 1.955 7.937c.28 1.12-.652 2.147-1.583 2.147-.28 0-.653-.093-.931-.278l-6.983-4.296-6.891 4.296a1.58 1.58 0 0 1-.931.278c-1.025 0-1.957-.931-1.583-2.147l1.955-7.937-6.238-5.23c-1.211-1.028-.466-2.894 1.024-2.988l8.1-.56 3.073-7.563c.28-.749.932-1.028 1.583-1.028.652 0 1.304.373 1.583 1.028l3.073 7.564 8.1.559c1.585.094 2.236 2.055 1.024 2.988"/>
    </g>
</svg>
