<svg xmlns="http://www.w3.org/2000/svg" xmlns:xlink="http://www.w3.org/1999/xlink" width="152" height="152" viewBox="0 0 152 152">
    <defs>
        <path id="a" d="M.667.12h4.43v5.237H.667z"/>
        <path id="c" d="M.547.12h4.43v5.237H.546z"/>
        <path id="e" d="M.492.12h4.43v5.237H.491z"/>
        <path id="g" d="M0 152h151.847V.153H0z"/>
        <linearGradient id="i" x1="99.619%" x2=".099%" y1="50.038%" y2="50.038%">
            <stop offset=".09%" stop-color="#F93E56"/>
            <stop offset="99.975%" stop-color="#FE6561"/>
        </linearGradient>
    </defs>
    <g fill="none" fill-rule="evenodd">
        <g opacity=".9">
            <path fill="#FFF" d="M60.215.556a2.215 2.215 0 1 1 0 4.43 2.215 2.215 0 0 1 0-4.43M65.451.556a2.215 2.215 0 1 1 0 4.43 2.215 2.215 0 0 1 0-4.43M78.945 2.368v3.021h4.43V2.368a2.215 2.215 0 1 0-4.43 0M86.396.556a2.215 2.215 0 1 1 0 4.43 2.215 2.215 0 0 1 0-4.43M94.653 2.368v3.021h4.43V2.368a2.215 2.215 0 1 0-4.43 0M105.125 2.368v3.021h4.43V2.368a2.214 2.214 0 1 0-4.43 0M47.528 7.604v3.021h4.43V7.604a2.215 2.215 0 1 0-4.43 0M54.98 5.792a2.215 2.215 0 1 1 0 4.43 2.215 2.215 0 0 1 0-4.43M68.473 7.604v3.021h4.429V7.604a2.215 2.215 0 1 0-4.43 0M73.709 7.604v3.021h4.43V7.604a2.214 2.214 0 1 0-4.43 0M83.375 8.41V5.39h-4.43V8.41a2.215 2.215 0 1 0 4.43 0M94.653 8.007v2.618h4.43V5.39h-4.43zM102.104 5.792a2.215 2.215 0 1 1 0 4.43 2.215 2.215 0 0 1 0-4.43M105.125 8.007v2.618h4.43V5.39h-4.43zM47.528 13.243v2.618h4.43v-5.236h-4.43zM60.215 11.028a2.215 2.215 0 1 1 0 4.43 2.215 2.215 0 0 1 0-4.43M65.451 11.028a2.215 2.215 0 1 1 0 4.43 2.215 2.215 0 0 1 0-4.43M72.902 13.646v-3.021h-4.43v3.021a2.215 2.215 0 1 0 4.43 0M73.709 13.243v2.618h4.43v-5.236h-4.43zM94.653 13.243v2.618h4.43v-5.236h-4.43zM105.125 13.243v2.618h4.43v-5.236h-4.43z"/>
            <path fill="#FFF" d="M47.528 18.48v2.618h4.43V15.86h-4.43zM52.764 18.076v3.022h4.43v-3.022a2.215 2.215 0 1 0-4.43 0M78.138 18.883V15.86H73.71v3.022a2.215 2.215 0 1 0 4.43 0M86.396 16.264a2.215 2.215 0 1 1 0 4.43 2.215 2.215 0 0 1 0-4.43M89.417 18.076v3.022h4.43v-3.022a2.214 2.214 0 1 0-4.43 0M99.083 18.883V15.86h-4.43v3.022a2.215 2.215 0 1 0 4.43 0M99.89 18.076v3.022h4.429v-3.022a2.215 2.215 0 1 0-4.43 0M109.555 18.883V15.86h-4.43v3.022a2.215 2.215 0 1 0 4.43 0M44.507 21.5a2.215 2.215 0 1 1 0 4.43 2.215 2.215 0 0 1 0-4.43"/>
            <path fill="#FFF" d="M47.528 23.715v2.618h4.43v-5.236h-4.43zM52.764 23.715v2.618h4.43v-5.236h-4.43zM81.16 21.5a2.216 2.216 0 1 1 0 4.432 2.216 2.216 0 0 1 0-4.432M93.847 24.119v-3.022h-4.43v3.022a2.215 2.215 0 1 0 4.43 0M99.89 23.715v2.618h4.429v-5.236h-4.43zM51.958 29.355v-3.022h-4.43V29.355a2.215 2.215 0 1 0 4.43 0M52.764 28.951v2.619h4.43v-5.237h-4.43zM63.236 28.548v3.022h4.43v-3.022a2.215 2.215 0 1 0-4.43 0M104.319 29.355v-3.022h-4.43V29.355a2.214 2.214 0 1 0 4.43 0M105.125 28.548v3.022h4.43v-3.022a2.214 2.214 0 1 0-4.43 0M42.292 33.785V36.806h4.43v-3.021a2.215 2.215 0 0 0-4.43 0M57.194 34.59v-3.02h-4.43v3.021a2.215 2.215 0 1 0 4.43 0"/>
            <path fill="#FFF" d="M63.236 34.188v2.618h4.43v-5.237h-4.43zM75.924 31.973a2.215 2.215 0 1 1 0 4.43 2.215 2.215 0 0 1 0-4.43M86.396 31.973a2.215 2.215 0 1 1 0 4.43 2.215 2.215 0 0 1 0-4.43M94.653 33.785V36.806h4.43v-3.021a2.215 2.215 0 1 0-4.43 0M109.555 34.59v-3.02h-4.43v3.021a2.215 2.215 0 1 0 4.43 0M42.292 39.424v2.618h4.43v-5.236h-4.43z"/>
            <path fill="#FFF" d="M67.666 39.827v-3.021h-4.43v3.021a2.215 2.215 0 1 0 4.43 0M91.632 37.209a2.215 2.215 0 1 1 0 4.43 2.215 2.215 0 0 1 0-4.43M99.083 39.827v-3.021h-4.43v3.021a2.215 2.215 0 1 0 4.43 0M99.89 39.02V42.043h4.429V39.02a2.215 2.215 0 1 0-4.43 0M10.876 44.257v3.021h4.429v-3.021a2.215 2.215 0 1 0-4.43 0M16.111 44.257v3.021h4.43v-3.021a2.215 2.215 0 1 0-4.43 0M34.035 42.445a2.215 2.215 0 1 1 0 4.43 2.215 2.215 0 0 1 0-4.43M39.27 42.445a2.215 2.215 0 1 1 .001 4.43 2.215 2.215 0 0 1 0-4.43M42.292 44.66v2.618h4.43v-5.236h-4.43zM68.473 44.257v3.021h4.429v-3.021a2.215 2.215 0 1 0-4.43 0M73.709 44.257v3.021h4.43v-3.021a2.214 2.214 0 1 0-4.43 0"/>
            <path fill="#FFF" d="M104.319 45.063v-3.021h-4.43v3.021a2.214 2.214 0 1 0 4.43 0M110.362 44.257v3.021h4.43v-3.021a2.215 2.215 0 1 0-4.43 0M115.598 44.257v3.021h4.429v-3.021a2.214 2.214 0 1 0-4.43 0M126.07 44.257v3.021h4.43v-3.021a2.215 2.215 0 1 0-4.43 0M.403 49.493v3.021h4.43v-3.021a2.215 2.215 0 1 0-4.43 0M15.305 50.299v-3.021h-4.43v3.021a2.215 2.215 0 1 0 4.43 0M20.541 50.299v-3.021h-4.43v3.021a2.215 2.215 0 1 0 4.43 0M23.562 47.681a2.215 2.215 0 1 1 0 4.43 2.215 2.215 0 0 1 0-4.43M42.292 49.896v2.618h4.43v-5.236h-4.43zM58 49.493v3.021h4.43v-3.021a2.215 2.215 0 1 0-4.43 0M65.451 47.681a2.215 2.215 0 1 1 0 4.43 2.215 2.215 0 0 1 0-4.43M72.902 50.299v-3.021h-4.43v3.021a2.215 2.215 0 1 0 4.43 0M73.709 49.896v2.618h4.43v-5.236h-4.43zM78.945 49.493v3.021h4.43v-3.021a2.215 2.215 0 1 0-4.43 0M84.181 49.493v3.021h4.43v-3.021a2.215 2.215 0 1 0-4.43 0M91.632 47.681a2.215 2.215 0 1 1 0 4.43 2.215 2.215 0 0 1 0-4.43M114.791 50.299v-3.021h-4.43v3.021a2.214 2.214 0 1 0 4.43 0M115.598 49.896v2.618h4.429v-5.236h-4.43zM130.5 50.299v-3.021h-4.43v3.021a2.214 2.214 0 1 0 4.43 0M131.306 49.493v3.021h4.43v-3.021a2.214 2.214 0 1 0-4.43 0M138.757 47.681a2.215 2.215 0 1 1 0 4.43 2.215 2.215 0 0 1 0-4.43M149.229 47.681a2.216 2.216 0 1 1 0 4.431 2.216 2.216 0 0 1 0-4.43M4.833 55.535V52.514H.403v3.021a2.215 2.215 0 1 0 4.43 0M7.854 52.917a2.215 2.215 0 1 1 0 4.43 2.215 2.215 0 0 1 0-4.43M28.799 52.917a2.215 2.215 0 1 1 0 4.43 2.215 2.215 0 0 1 0-4.43M34.035 52.917a2.215 2.215 0 1 1 0 4.43 2.215 2.215 0 0 1 0-4.43M42.292 55.132v2.618h4.43v-5.236h-4.43zM54.98 52.917a2.215 2.215 0 1 1 0 4.43 2.215 2.215 0 0 1 0-4.43M62.43 55.535V52.514H58v3.021a2.215 2.215 0 0 0 4.43 0M78.138 55.535V52.514H73.71v3.021a2.215 2.215 0 1 0 4.43 0M78.945 55.132v2.618h4.43v-5.236h-4.43zM88.61 55.535V52.514h-4.429v3.021a2.214 2.214 0 1 0 4.43 0M120.027 55.535V52.514h-4.43v3.021a2.215 2.215 0 1 0 4.43 0M135.735 55.535V52.514h-4.429v3.021a2.215 2.215 0 1 0 4.43 0M143.993 52.917a2.215 2.215 0 1 1 0 4.43 2.215 2.215 0 0 1 0-4.43M18.327 58.153a2.215 2.215 0 1 1 0 4.43 2.215 2.215 0 0 1 0-4.43M37.056 59.965v3.021h4.43v-3.021a2.215 2.215 0 1 0-4.43 0M46.722 60.771V57.75h-4.43v3.021a2.215 2.215 0 1 0 4.43 0M49.743 58.153a2.215 2.215 0 1 1 0 4.43 2.215 2.215 0 0 1 0-4.43M78.945 60.368v2.618h4.43V57.75h-4.43zM99.89 59.965v3.021h4.429v-3.021a2.215 2.215 0 1 0-4.43 0M105.125 59.965v3.021h4.43v-3.021a2.214 2.214 0 1 0-4.43 0M120.833 59.965v3.021h4.43v-3.021a2.215 2.215 0 1 0-4.43 0M147.014 59.965v3.021h4.43v-3.021a2.215 2.215 0 1 0-4.43 0M23.562 63.39a2.215 2.215 0 1 1 0 4.43 2.215 2.215 0 0 1 0-4.43M34.035 63.39a2.215 2.215 0 1 1 0 4.43 2.215 2.215 0 0 1 0-4.43"/>
            <path fill="#FFF" d="M37.056 65.604v2.619h4.43v-5.237h-4.43zM58 65.2v3.022h4.43v-3.021a2.215 2.215 0 1 0-4.43 0M65.451 63.39a2.215 2.215 0 1 1 0 4.43 2.215 2.215 0 0 1 0-4.43M68.473 65.2v3.022h4.429v-3.021a2.215 2.215 0 1 0-4.43 0M78.945 65.604v2.619h4.43v-5.237h-4.43zM96.868 63.39a2.215 2.215 0 1 1 0 4.43 2.215 2.215 0 0 1 0-4.43M99.89 65.604v2.619h4.429v-5.237h-4.43zM109.555 66.008v-3.022h-4.43V66.008a2.215 2.215 0 1 0 4.43 0M112.576 63.39a2.215 2.215 0 1 1 0 4.43 2.215 2.215 0 0 1 0-4.43M120.833 65.604v2.619h4.43v-5.237h-4.43zM136.542 65.2v3.022h4.43v-3.021a2.215 2.215 0 1 0-4.43 0M143.993 63.39a2.215 2.215 0 1 1 0 4.43 2.215 2.215 0 0 1 0-4.43M147.014 65.604v2.619h4.43v-5.237h-4.43zM13.09 68.625a2.215 2.215 0 1 1 0 4.43 2.215 2.215 0 0 1 0-4.43M18.327 68.625a2.215 2.215 0 1 1 0 4.43 2.215 2.215 0 0 1 0-4.43"/>
            <path fill="#FFF" d="M41.486 71.243V68.222h-4.43v3.021a2.215 2.215 0 0 0 4.43 0M62.43 71.243V68.222H58v3.021a2.215 2.215 0 0 0 4.43 0M68.473 70.84v2.618h4.429v-5.236h-4.43zM75.924 68.625a2.215 2.215 0 1 1 0 4.43 2.215 2.215 0 0 1 0-4.43M83.375 71.243V68.222h-4.43v3.021a2.215 2.215 0 1 0 4.43 0M89.417 70.437v3.021h4.43v-3.021a2.214 2.214 0 1 0-4.43 0M99.89 70.84v2.618h4.429v-5.236h-4.43zM117.812 68.625a2.215 2.215 0 1 1 0 4.43 2.215 2.215 0 0 1 0-4.43M120.833 70.84v2.618h4.43v-5.236h-4.43zM131.306 70.437v3.021h4.43v-3.021a2.214 2.214 0 1 0-4.43 0M140.972 71.243V68.222h-4.43v3.021a2.215 2.215 0 1 0 4.43 0M147.014 70.84v2.618h4.43v-5.236h-4.43zM5.64 75.673v3.022h4.429v-3.022a2.215 2.215 0 1 0-4.43 0M34.035 73.862a2.215 2.215 0 1 1 0 4.43 2.215 2.215 0 0 1 0-4.43M54.98 73.862a2.215 2.215 0 1 1 0 4.43 2.215 2.215 0 0 1 0-4.43M63.236 75.673v3.022h4.43v-3.022a2.215 2.215 0 1 0-4.43 0M68.473 76.076v2.619h4.429v-5.237h-4.43zM93.847 76.48v-3.022h-4.43v3.022a2.215 2.215 0 1 0 4.43 0M99.89 76.076v2.619h4.429v-5.237h-4.43zM105.125 75.673v3.022h4.43v-3.022a2.214 2.214 0 1 0-4.43 0M110.362 75.673v3.022h4.43v-3.022a2.215 2.215 0 1 0-4.43 0M125.264 76.48v-3.022h-4.43v3.022a2.215 2.215 0 1 0 4.43 0M126.07 75.673v3.022h4.43v-3.022a2.215 2.215 0 1 0-4.43 0M131.306 76.076v2.619h4.43v-5.237h-4.43zM143.993 73.862a2.215 2.215 0 1 1 0 4.43 2.215 2.215 0 0 1 0-4.43M147.014 76.076v2.619h4.43v-5.237h-4.43z"/>
            <path fill="#FFF" d="M10.069 81.716v-3.022h-4.43V81.716a2.215 2.215 0 0 0 4.43 0M28.799 79.098a2.215 2.215 0 1 1 0 4.429 2.215 2.215 0 0 1 0-4.43M37.056 80.91v3.021h4.43V80.91a2.215 2.215 0 0 0-4.43 0M47.528 80.91v3.021h4.43V80.91a2.215 2.215 0 0 0-4.43 0M58 80.91v3.021h4.43V80.91a2.215 2.215 0 0 0-4.43 0M67.666 81.716v-3.022h-4.43V81.716a2.215 2.215 0 0 0 4.43 0M68.473 81.313v2.618h4.429v-5.237h-4.43zM86.396 79.098a2.215 2.215 0 1 1 0 4.429 2.215 2.215 0 0 1 0-4.43M104.319 81.716v-3.022h-4.43V81.716a2.215 2.215 0 1 0 4.43 0M105.125 81.313v2.618h4.43v-5.237h-4.43zM110.362 81.313v2.618h4.43v-5.237h-4.43zM117.812 79.098a2.215 2.215 0 1 1 .001 4.429 2.215 2.215 0 0 1 0-4.43M126.07 81.313v2.618h4.43v-5.237h-4.43zM131.306 81.313v2.618h4.43v-5.237h-4.43zM151.444 81.716v-3.022h-4.43V81.716a2.215 2.215 0 0 0 4.43 0M2.618 84.334a2.215 2.215 0 1 1 0 4.43 2.215 2.215 0 0 1 0-4.43M13.09 84.334a2.215 2.215 0 1 1 0 4.43 2.215 2.215 0 0 1 0-4.43M34.035 84.334a2.215 2.215 0 1 1 0 4.43 2.215 2.215 0 0 1 0-4.43"/>
            <path fill="#FFF" d="M41.486 86.952V83.93h-4.43v3.021a2.216 2.216 0 0 0 4.43 0M44.507 84.334a2.215 2.215 0 1 1 0 4.43 2.215 2.215 0 0 1 0-4.43M47.528 86.548v2.619h4.43V83.93h-4.43zM62.43 86.952V83.93H58v3.021a2.216 2.216 0 0 0 4.43 0M72.902 86.952V83.93h-4.43v3.021a2.215 2.215 0 0 0 4.43 0M78.945 86.146v3.021h4.43v-3.021a2.215 2.215 0 1 0-4.43 0M89.417 86.146v3.021h4.43v-3.021a2.214 2.214 0 1 0-4.43 0M96.868 84.334a2.215 2.215 0 1 1 0 4.43 2.215 2.215 0 0 1 0-4.43M105.125 86.548v2.619h4.43V83.93h-4.43zM114.791 86.952V83.93h-4.43v3.021a2.215 2.215 0 1 0 4.43 0M120.833 86.146v3.021h4.43v-3.021a2.215 2.215 0 1 0-4.43 0M130.5 86.952V83.93h-4.43v3.021a2.215 2.215 0 1 0 4.43 0M135.735 86.952V83.93h-4.429v3.021a2.215 2.215 0 0 0 4.43 0M143.993 84.334a2.215 2.215 0 1 1 0 4.43 2.215 2.215 0 0 1 0-4.43M28.799 89.57a2.215 2.215 0 1 1 0 4.43 2.215 2.215 0 0 1 0-4.43M51.958 92.188v-3.021h-4.43v3.021a2.215 2.215 0 1 0 4.43 0M63.236 91.382v3.021h4.43v-3.021a2.215 2.215 0 0 0-4.43 0M75.924 89.57a2.215 2.215 0 1 1 0 4.43 2.215 2.215 0 0 1 0-4.43M83.375 92.188v-3.021h-4.43v3.021a2.215 2.215 0 1 0 4.43 0M89.417 91.785v2.617h4.43V89.167h-4.43zM105.125 91.785v2.617h4.43V89.167h-4.43zM125.264 92.188v-3.021h-4.43v3.021a2.215 2.215 0 1 0 4.43 0M136.542 91.382v3.021h4.43v-3.021a2.215 2.215 0 0 0-4.43 0M2.618 94.806a2.215 2.215 0 1 1 0 4.43 2.215 2.215 0 0 1 0-4.43M16.111 96.618v3.021h4.43v-3.021a2.216 2.216 0 1 0-4.43 0M34.035 94.806a2.215 2.215 0 1 1 0 4.43 2.215 2.215 0 0 1 0-4.43M52.764 96.618v3.021h4.43v-3.021a2.215 2.215 0 1 0-4.43 0M58 96.618v3.021h4.43v-3.021a2.216 2.216 0 1 0-4.43 0"/>
            <path fill="#FFF" d="M67.666 97.424v-3.022h-4.43v3.022a2.215 2.215 0 0 0 4.43 0M68.473 96.618v3.021h4.429v-3.021a2.215 2.215 0 1 0-4.43 0M86.396 94.806a2.215 2.215 0 1 1 0 4.43 2.215 2.215 0 0 1 0-4.43M89.417 97.02v2.619h4.43v-5.236h-4.43zM96.868 94.806a2.215 2.215 0 1 1 0 4.43 2.215 2.215 0 0 1 0-4.43M109.555 97.424v-3.022h-4.43v3.022a2.215 2.215 0 0 0 4.43 0M115.598 96.618v3.021h4.429v-3.021a2.215 2.215 0 1 0-4.43 0M126.07 96.618v3.021h4.43v-3.021a2.215 2.215 0 1 0-4.43 0M131.306 96.618v3.021h4.43v-3.021a2.215 2.215 0 1 0-4.43 0M136.542 97.02v2.619h4.43v-5.236h-4.43zM10.876 101.854v3.021h4.429v-3.021a2.215 2.215 0 1 0-4.43 0M20.541 102.66V99.64h-4.43v3.021a2.215 2.215 0 1 0 4.43 0M26.584 101.854v3.021h4.43v-3.021a2.215 2.215 0 1 0-4.43 0M39.27 100.042a2.215 2.215 0 1 1 .001 4.43 2.215 2.215 0 0 1 0-4.43M49.743 100.042a2.215 2.215 0 1 1 0 4.43 2.215 2.215 0 0 1 0-4.43M57.194 102.66V99.64h-4.43v3.021a2.215 2.215 0 1 0 4.43 0M58 102.257v2.618h4.43v-5.236H58zM72.902 102.66V99.64h-4.43v3.021a2.215 2.215 0 1 0 4.43 0M81.16 100.042a2.216 2.216 0 1 1 0 4.431 2.216 2.216 0 0 1 0-4.431M93.847 102.66V99.64h-4.43v3.021a2.215 2.215 0 1 0 4.43 0M102.104 100.042a2.215 2.215 0 1 1 0 4.43 2.215 2.215 0 0 1 0-4.43M110.362 101.854v3.021h4.43v-3.021a2.215 2.215 0 1 0-4.43 0M115.598 102.257v2.618h4.429v-5.236h-4.43zM126.07 102.257v2.618h4.43v-5.236h-4.43zM131.306 102.257v2.618h4.43v-5.236h-4.43zM136.542 102.257v2.618h4.43v-5.236h-4.43zM147.014 101.854v3.021h4.43v-3.021a2.215 2.215 0 1 0-4.43 0M7.854 105.278a2.215 2.215 0 1 1 .001 4.43 2.215 2.215 0 0 1 0-4.43M15.305 107.896v-3.021h-4.43v3.021a2.215 2.215 0 1 0 4.43 0M31.013 107.896v-3.021h-4.43v3.021a2.215 2.215 0 1 0 4.43 0M34.035 105.278a2.215 2.215 0 1 1 0 4.43 2.215 2.215 0 0 1 0-4.43M42.292 107.09v3.022h4.43v-3.022a2.216 2.216 0 0 0-4.43 0"/>
            <path fill="#FFF" d="M58 107.493v2.618h4.43v-5.236H58zM75.924 105.278a2.215 2.215 0 1 1 0 4.43 2.215 2.215 0 0 1 0-4.43M96.868 105.278a2.215 2.215 0 1 1 0 4.43 2.215 2.215 0 0 1 0-4.43M105.125 107.09v3.022h4.43v-3.022a2.215 2.215 0 1 0-4.43 0M114.791 107.896v-3.021h-4.43v3.021a2.215 2.215 0 1 0 4.43 0M120.027 107.896v-3.021h-4.43v3.021a2.215 2.215 0 1 0 4.43 0M123.048 105.278a2.215 2.215 0 1 1 .001 4.43 2.215 2.215 0 0 1 0-4.43M126.07 107.493v2.618h4.43v-5.236h-4.43zM131.306 107.493v2.618h4.43v-5.236h-4.43zM140.972 107.896v-3.021h-4.43v3.021a2.216 2.216 0 1 0 4.43 0M141.778 107.09v3.022h4.43v-3.022a2.215 2.215 0 1 0-4.43 0M147.014 107.493v2.618h4.43v-5.236h-4.43zM42.292 112.729v2.618h4.43V110.112h-4.43z"/>
            <path fill="#FFF" d="M62.43 113.133V110.11H58V113.133a2.216 2.216 0 0 0 4.43 0M70.687 110.514a2.215 2.215 0 1 1 0 4.43 2.215 2.215 0 0 1 0-4.43M91.632 110.514a2.215 2.215 0 1 1 0 4.43 2.215 2.215 0 0 1 0-4.43M99.89 112.326v3.022h4.429v-3.022a2.215 2.215 0 1 0-4.43 0M105.125 112.729v2.618h4.43V110.112h-4.43zM126.07 112.729v2.618h4.43V110.112h-4.43zM135.735 113.133V110.11h-4.429V113.133a2.215 2.215 0 0 0 4.43 0M141.778 112.729v2.618h4.43V110.112h-4.43zM151.444 113.133V110.11h-4.43V113.133a2.215 2.215 0 0 0 4.43 0M46.722 118.368v-3.021h-4.43v3.021a2.215 2.215 0 1 0 4.43 0M47.528 117.562v3.021h4.43v-3.021a2.215 2.215 0 0 0-4.43 0M65.451 115.75a2.215 2.215 0 1 1 .001 4.43 2.215 2.215 0 0 1 0-4.43M78.945 117.562v3.021h4.43v-3.021a2.215 2.215 0 0 0-4.43 0M84.181 117.562v3.021h4.43v-3.021a2.215 2.215 0 0 0-4.43 0M94.653 117.562v3.021h4.43v-3.021a2.215 2.215 0 0 0-4.43 0"/>
            <path fill="#FFF" d="M104.319 118.368v-3.021h-4.43v3.021a2.214 2.214 0 1 0 4.43 0M105.125 117.966v2.617h4.43V115.347h-4.43zM117.812 115.75a2.215 2.215 0 1 1 .001 4.43 2.215 2.215 0 0 1 0-4.43M126.07 117.966v2.617h4.43V115.347h-4.43zM138.757 115.75a2.215 2.215 0 1 1 0 4.43 2.215 2.215 0 0 1 0-4.43M146.208 118.368v-3.021h-4.43v3.021a2.214 2.214 0 1 0 4.43 0M51.958 123.605V120.583h-4.43V123.605a2.215 2.215 0 0 0 4.43 0M52.764 122.798v3.022h4.43V122.798a2.215 2.215 0 0 0-4.43 0M83.375 123.605V120.583h-4.43V123.605a2.215 2.215 0 0 0 4.43 0M84.181 123.201v2.619h4.43v-5.237h-4.43zM99.083 123.605V120.583h-4.43V123.605a2.215 2.215 0 0 0 4.43 0M105.125 123.201v2.619h4.43v-5.237h-4.43zM126.07 123.201v2.619h4.43v-5.237h-4.43z"/>
            <path fill="#FFF" d="M52.764 128.437v2.618h4.43V125.82h-4.43zM65.451 126.222a2.215 2.215 0 1 1 0 4.43 2.215 2.215 0 0 1 0-4.43M88.61 128.84v-3.021h-4.429v3.022a2.214 2.214 0 1 0 4.43 0M109.555 128.84v-3.021h-4.43v3.022a2.215 2.215 0 1 0 4.43 0M112.576 126.222a2.215 2.215 0 1 1 0 4.431 2.215 2.215 0 0 1 0-4.43M117.812 126.222a2.215 2.215 0 1 1 0 4.43 2.215 2.215 0 0 1 0-4.43M123.048 126.222a2.216 2.216 0 1 1 0 4.432 2.216 2.216 0 0 1 0-4.432M126.07 128.437v2.618h4.43V125.82h-4.43zM131.306 128.034v3.022h4.43v-3.022a2.214 2.214 0 1 0-4.43 0M136.542 128.034v3.022h4.43v-3.022a2.215 2.215 0 1 0-4.43 0M149.229 126.222a2.216 2.216 0 1 1 0 4.432 2.216 2.216 0 0 1 0-4.432M42.292 133.27V136.292h4.43V133.27a2.216 2.216 0 0 0-4.43 0M49.743 131.459a2.215 2.215 0 1 1 0 4.43 2.215 2.215 0 0 1 0-4.43M57.194 134.077v-3.022h-4.43v3.022a2.215 2.215 0 1 0 4.43 0M75.924 131.459a2.215 2.215 0 1 1 0 4.43 2.215 2.215 0 0 1 0-4.43M94.653 133.27V136.292h4.43V133.27a2.215 2.215 0 0 0-4.43 0M102.104 131.459a2.215 2.215 0 1 1 .001 4.43 2.215 2.215 0 0 1 0-4.43M130.5 134.077v-3.022h-4.43v3.022a2.214 2.214 0 1 0 4.43 0"/>
            <path fill="#FFF" d="M135.735 134.077v-3.022h-4.429v3.022a2.215 2.215 0 1 0 4.43 0M136.542 133.674v2.617h4.43V131.056h-4.43zM143.993 131.459a2.215 2.215 0 1 1 0 4.43 2.215 2.215 0 0 1 0-4.43M46.722 139.313v-3.022h-4.43v3.022a2.215 2.215 0 0 0 4.43 0M58 138.507V141.528h4.43v-3.021a2.216 2.216 0 1 0-4.43 0M63.236 138.507V141.528h4.43v-3.021a2.216 2.216 0 1 0-4.43 0M70.687 136.695a2.215 2.215 0 1 1 0 4.43 2.215 2.215 0 0 1 0-4.43M99.083 139.313v-3.022h-4.43v3.022a2.215 2.215 0 0 0 4.43 0M105.125 138.507V141.528h4.43v-3.021a2.215 2.215 0 1 0-4.43 0M123.048 136.695a2.216 2.216 0 1 1 0 4.431 2.216 2.216 0 0 1 0-4.431M140.972 139.313v-3.022h-4.43v3.022a2.215 2.215 0 0 0 4.43 0M149.229 136.695a2.216 2.216 0 1 1 0 4.431 2.216 2.216 0 0 1 0-4.431M54.98 141.93a2.215 2.215 0 1 1-.001 4.431 2.215 2.215 0 0 1 0-4.43M62.43 144.549v-3.021H58v3.021a2.215 2.215 0 0 0 4.43 0M67.666 144.549v-3.021h-4.43v3.021a2.215 2.215 0 1 0 4.43 0M81.16 141.93a2.216 2.216 0 1 1 0 4.432 2.216 2.216 0 0 1 0-4.431M105.125 144.146v2.618h4.43v-5.236h-4.43zM110.362 143.743v3.021h4.43v-3.021a2.215 2.215 0 1 0-4.43 0M128.285 141.93a2.215 2.215 0 1 1 0 4.431 2.215 2.215 0 0 1 0-4.43M133.52 141.93a2.215 2.215 0 1 1 0 4.431 2.215 2.215 0 0 1 0-4.43M141.778 143.743v3.021h4.43v-3.021a2.214 2.214 0 1 0-4.43 0M49.743 147.167a2.215 2.215 0 1 1 0 4.43 2.215 2.215 0 0 1 0-4.43M75.924 147.167a2.215 2.215 0 1 1 0 4.43 2.215 2.215 0 0 1 0-4.43M96.868 147.167a2.215 2.215 0 1 1 0 4.43 2.215 2.215 0 0 1 0-4.43M102.104 147.167a2.215 2.215 0 1 1 .001 4.43 2.215 2.215 0 0 1 0-4.43"/>
            <g transform="translate(104.458 146.643)">
                <mask id="b" fill="#fff">
                    <use xlink:href="#a"/>
                </mask>
                <path fill="#FFF" d="M5.097 3.142V.12H.667v3.022a2.215 2.215 0 0 0 4.43 0" mask="url(#b)"/>
            </g>
            <g transform="translate(109.815 146.643)">
                <mask id="d" fill="#fff">
                    <use xlink:href="#c"/>
                </mask>
                <path fill="#FFF" d="M4.976 3.142V.12H.546v3.022a2.215 2.215 0 1 0 4.43 0" mask="url(#d)"/>
            </g>
            <path fill="#FFF" d="M117.812 147.167a2.215 2.215 0 1 1 .001 4.43 2.215 2.215 0 0 1 0-4.43M123.048 147.167a2.215 2.215 0 1 1 .001 4.43 2.215 2.215 0 0 1 0-4.43"/>
            <g transform="translate(141.286 146.643)">
                <mask id="f" fill="#fff">
                    <use xlink:href="#e"/>
                </mask>
                <path fill="#FFF" d="M4.921 3.142V.12H.492v3.022a2.215 2.215 0 1 0 4.43 0" mask="url(#f)"/>
            </g>
            <path fill="#FFF" d="M31.155 24.428c0 3.791-3.147 6.876-7.017 6.876l-5.811.001-5.812-.001c-3.87 0-7.017-3.085-7.017-6.876V12.526c0-.476.062-.937.156-1.386.024-.11.037-.222.065-.33.01-.033.023-.064.032-.096.144-.513.34-1.004.594-1.462A6.979 6.979 0 0 1 8.49 6.9a7.073 7.073 0 0 1 4.024-1.246H24.14c3.869 0 7.016 3.083 7.016 6.873v11.902zM24.139.156H12.514c-5.666 0-10.466 3.743-12 8.86A12.167 12.167 0 0 0 0 12.525v11.902C0 31.252 5.615 36.8 12.514 36.8l5.813.002 5.812-.002c6.898 0 12.513-5.55 12.513-12.373V12.526c0-6.821-5.614-12.37-12.513-12.37zM5.498 12.526"/>
            <path d="M5.751 10.713c-.01.033-.023.065-.032.097"/>
            <path fill="#FFF" d="M5.498 24.428c0 3.791 3.147 6.876 7.017 6.876l5.812.001-5.812-.002c-3.87 0-7.017-3.084-7.017-6.875M146.349 24.428c0 3.791-3.147 6.876-7.017 6.876l-5.811.001-5.812-.002c-3.87 0-7.017-3.084-7.017-6.875V12.526c0-1.184.308-2.3.848-3.274a6.979 6.979 0 0 1 2.144-2.353 7.076 7.076 0 0 1 4.023-1.246h11.626c3.87 0 7.016 3.083 7.016 6.873v11.902zM139.333.156h-11.625c-5.666 0-10.466 3.743-12 8.86a12.166 12.166 0 0 0-.514 3.51v11.902c0 6.824 5.616 12.373 12.514 12.373l5.813.002 5.812-.002c6.898 0 12.514-5.55 12.514-12.373V12.526c0-6.821-5.615-12.37-12.514-12.37zM31.155 139.622c0 3.791-3.147 6.877-7.017 6.877h-5.811l-5.812-.001c-3.87 0-7.017-3.085-7.017-6.876V127.72c0-1.185.307-2.3.847-3.274a6.975 6.975 0 0 1 2.144-2.354 7.078 7.078 0 0 1 4.024-1.245H24.14c3.869 0 7.016 3.083 7.016 6.873v11.9zm-7.016-24.272H12.514c-5.666 0-10.466 3.744-12 8.86A12.19 12.19 0 0 0 0 127.72v11.902c0 6.824 5.615 12.373 12.514 12.373l5.813.002 5.812-.002c6.898 0 12.513-5.55 12.513-12.373V127.72c0-6.821-5.614-12.371-12.513-12.371z"/>
            <mask id="h" fill="#fff">
                <use xlink:href="#g"/>
            </mask>
            <path fill="#FFF" d="M10.472 26.333H26.18V10.625H10.472zM125.667 26.333h15.708V10.625h-15.708zM10.472 141.528H26.18V125.82H10.472z" mask="url(#h)"/>
        </g>
        <path fill="url(#i)" d="M49.55 70.978c0-14.793 11.993-26.784 26.785-26.784 14.793 0 26.784 11.991 26.784 26.784 0 14.792-11.991 26.784-26.784 26.784-14.792 0-26.784-11.992-26.784-26.784"/>
        <path fill="#3B4256" d="M90.438 68.386l-6.33 5.23 1.955 7.937c.28 1.12-.652 2.147-1.583 2.147-.28 0-.653-.093-.931-.278l-6.983-4.296-6.891 4.296a1.58 1.58 0 0 1-.931.278c-1.025 0-1.957-.931-1.583-2.147l1.955-7.937-6.238-5.23c-1.211-1.028-.466-2.894 1.024-2.988l8.1-.56 3.073-7.563c.28-.749.932-1.028 1.583-1.028.652 0 1.304.373 1.583 1.028l3.073 7.564 8.1.559c1.585.094 2.236 2.055 1.024 2.988"/>
    </g>
</svg>
